   <svg xmlns="http://www.w3.org/2000/svg"  width="1590" height="159">
        <g
          fill="none"
          stroke="black"
          stroke-linecap="round"
          stroke-width="1.6"
          transform="matrix(3.77953 0 0 3.77953 1206.15 -511.845)"
        >
          <a transform="translate(-195.699 66.182)">
            <path stroke="black"
              d="M16.564 101.094c8.096 0 7.536.804 12.034-14.234 4.498-15.038 7.006-13.804 13.303-13.804"
            />
            <path
              d="M43.264 107.879c-8.096 0-9.964.534-14.462-14.504-4.498-15.038-5.941-13.534-12.238-13.534"
            />
            <rect width="14.147" height="25.817" x="46.618" y="77.854" rx="7.073" ry="7.152" />
            <circle cx="57.937" cy="102.217" r="2.4" />
            <rect width="14.147" height="25.817" x="46.618" y="77.854" rx="7.073" ry="7.152" />
            <path
              d="M79.445 77.349v19.558c0 5.402-6.153 6.93-9.87 6.93-3.718 0-3.55-2.33-3.55-6.51V77.348"
            />
            <path
              stroke-width="4.109"
              d="M-75.578-100.087h-9.305l4.653-8.058z"
              transform="matrix(-.40108 0 0 -.37798 46.61 62.607)"
            />
            <circle cx="86.658" cy="71.917" r="1.764" />
            <circle cx="38.718" cy="90.445" r="1.764" />
            <path stroke-linecap="butt" d="M18.007 101.094h-141.756M16.564 79.841h-140.199" />
          </a>
          <a transform="rotate(180 -10.876 123.426)">
            <path
              d="M16.564 101.094c8.096 0 7.536.804 12.034-14.234 4.498-15.038 7.006-13.804 13.303-13.804"
            />
            <path
              d="M43.264 107.879c-8.096 0-9.964.534-14.462-14.504-4.498-15.038-5.941-13.534-12.238-13.534"
            />
            <rect width="14.147" height="25.817" x="46.618" y="77.854" rx="7.073" ry="7.152" />
            <circle cx="57.937" cy="102.217" r="2.4" />
            <rect width="14.147" height="25.817" x="46.618" y="77.854" rx="7.073" ry="7.152" />
            <path
              d="M79.445 77.349v19.558c0 5.402-6.153 6.93-9.87 6.93-3.718 0-3.55-2.33-3.55-6.51V77.348"
            />
            <path
              stroke-width="4.109"
              d="M-75.578-100.087h-9.305l4.653-8.058z"
              transform="matrix(-.40108 0 0 -.37798 46.61 62.607)"
            />
            <circle cx="86.658" cy="71.917" r="1.764" />
            <circle cx="38.718" cy="90.445" r="1.764" />
            <path stroke-linecap="butt" d="M18.007 101.094h-141.756M16.564 79.841h-140.199" />
          </a>
        </g>
      </svg>